<svg xmlns="http://www.w3.org/2000/svg" viewBox="0 0 24 30" x="0px" y="0px"><title>business, management, tag, label, sale</title><g data-name="Layer 21"><path d="M21.1211,11.9648,11.45,2.293A1,1,0,0,0,10.7427,2H3A1,1,0,0,0,2,3v7.7422a.9993.9993,0,0,0,.293.707l9.6714,9.6719a3.0043,3.0043,0,0,0,4.2426,0l4.9141-4.9141a2.9989,2.9989,0,0,0,0-4.2422ZM7.1787,8.2031a1,1,0,0,1-.01-2h.01a1,1,0,0,1,0,2Zm4.41,6.2578a1,1,0,1,1-1.4141-1.414l2.8281-2.8281a1,1,0,1,1,1.4141,1.414Zm5.6567,0L14.417,17.29a1,1,0,0,1-1.4141-1.414l2.8286-2.8291a1,1,0,1,1,1.4141,1.414Z"/></g><text x="0" y="39" fill="#000000" font-size="5px" font-weight="bold" font-family="'Helvetica Neue', Helvetica, Arial-Unicode, Arial, Sans-serif">Created by Pondok Multimedia</text><text x="0" y="44" fill="#000000" font-size="5px" font-weight="bold" font-family="'Helvetica Neue', Helvetica, Arial-Unicode, Arial, Sans-serif">from the Noun Project</text></svg>